<svg width="398" height="80" viewBox="0 0 398 80" fill="none" xmlns="http://www.w3.org/2000/svg">
<path fill-rule="evenodd" clip-rule="evenodd" d="M359.085 23.064L354.652 26.5331L371.65 48.7786L353.52 74.4791L358.224 77.9696L375.267 54.1023L392.857 78.5353L397.208 75.0655L378.357 48.9417L393.395 27.816L388.771 23.9056L375.072 43.4541L359.085 23.064Z" fill="white"/>
<path fill-rule="evenodd" clip-rule="evenodd" d="M346.694 76.6807L340.371 77.9707L340.341 66.6783C340.34 66.1931 336.867 79.2936 320.127 79.0022C303.871 78.9118 301.211 66.327 301.299 63.5055L301.099 23.7949L307.817 22.4385L307.92 61.6628C307.923 62.7339 309.206 72.6478 320.694 72.6831C332.179 72.7166 340.225 65.767 340.282 55.3017L340.201 24.3541L346.453 22.7584L346.694 76.6807Z" fill="white"/>
<path fill-rule="evenodd" clip-rule="evenodd" d="M245.927 23.5094L252.25 22.2193L252.279 33.5119C252.281 33.9968 255.751 20.8966 272.494 21.1879C288.75 21.2784 291.409 33.8632 291.321 36.6847L291.521 76.395L285.979 77.5979L285.947 38.3743C286.012 37.2288 283.414 27.5424 271.927 27.5068C260.441 27.4734 252.483 35.8493 252.497 41.2005L252.589 75.754L246.167 77.4318L245.927 23.5094Z" fill="white"/>
<path fill-rule="evenodd" clip-rule="evenodd" d="M229.967 24.4935L235.507 22.0267L235.555 76.0433L230.204 77.1494L229.967 24.4935ZM228.65 5.01497L233.117 1.36816L236.829 5.49752L232.359 9.24086L228.65 5.01497Z" fill="white"/>
<path fill-rule="evenodd" clip-rule="evenodd" d="M212.777 2.00982L219.099 0.42749L219.398 75.7608L212.975 76.8546L212.777 2.00982Z" fill="white"/>
<path fill-rule="evenodd" clip-rule="evenodd" d="M162.455 0.0710449L148.438 3.36611L148.543 78.089L162.351 75.5959L162.507 40.4312C162.537 36.7439 167.842 31.0813 176.699 31.2608C185.168 31.3488 187.06 36.9054 187.037 37.6068L187.281 78.3157L200.898 75.9097L200.95 32.7427C201.039 28.589 191.852 19.8166 177.082 19.7542C170.064 19.7655 166.177 21.3544 164.199 22.5263C160.814 25.1404 156.946 27.6452 153.145 30.8424C156.659 26.3285 159.609 23.2075 162.49 20.8875L162.455 0.0710449Z" fill="white"/>
<path fill-rule="evenodd" clip-rule="evenodd" d="M143.741 27.6795C143.598 27.6122 135.998 18.7899 120.719 18.7204C106.408 18.4825 90.3553 24.0309 90.0984 48.0281C90.2237 69.1268 105.519 77.3722 120.8 77.533C137.154 77.7029 143.661 67.3071 144.051 67.0495C142.1 65.3579 134.791 58.1159 134.791 58.1159C134.791 58.1159 130.226 64.6159 121.369 64.6986C112.51 64.7829 104.81 57.8514 104.7 48.1798C104.587 38.5082 111.779 33.2683 121.436 32.8451C129.796 32.8434 134.619 38.2418 134.619 38.2418L143.741 27.6795Z" fill="white"/>
<path fill-rule="evenodd" clip-rule="evenodd" d="M60.1869 20.1484L60.1004 77.515L74.9471 74.6545L74.9722 42.1284C74.9756 37.2854 81.8932 31.6263 90.5724 31.7165C92.4146 28.3836 95.8773 19.8656 96.7209 17.9281C77.3305 17.8816 77.0836 23.5014 73.7111 26.2659C73.6759 20.9922 73.6993 17.8264 73.6993 17.8264L60.1869 20.1484Z" fill="white"/>
<path fill-rule="evenodd" clip-rule="evenodd" d="M27.5321 16.9473C19.4586 16.934 12.7584 18.5896 10.1676 19.4927L7.50022 33.8934C7.49375 33.9464 20.7755 30.3516 26.6255 30.5634C36.3114 30.9115 37.2029 34.2653 37.0337 38.7924C37.1988 39.0572 34.5347 34.7019 26.1548 34.5559C15.5829 34.3735 0.663042 38.299 0.683455 54.2565C0.398449 72.2062 14.0917 77.4865 23.4176 77.5834C31.8018 77.4308 35.7346 74.4083 37.888 72.789C40.7172 69.8309 43.954 66.8561 47.0409 63.2874C44.12 68.5945 41.5877 72.2638 38.9515 75.0729V77.444L51.6959 75.2996L51.783 40.6578C51.6539 35.7548 54.5955 16.9929 27.5321 16.9473ZM25.7015 47.1085C30.9841 47.181 37.0423 49.7847 37.0512 56.0522C37.0785 61.7529 29.9101 64.8177 25.2482 64.7693C20.5844 64.7209 14.3967 61.104 14.3693 55.5466C14.4586 50.5789 20.2046 46.9806 25.7015 47.1085Z" fill="white"/>
</svg>
