<svg width="3884" height="3885" viewBox="0 0 3884 3885" fill="none" xmlns="http://www.w3.org/2000/svg">
<path fill-rule="evenodd" clip-rule="evenodd" d="M1941.45 0C1768.56 423.876 1664.28 701.14 1471.79 1112.42C1589.81 1237.52 1734.67 1383.2 1969.93 1547.74C1717.01 1443.66 1544.48 1339.17 1415.55 1230.74C1169.2 1744.79 783.237 2477.02 0 3884.32C615.598 3528.93 1092.8 3309.83 1537.53 3226.22C1518.43 3144.09 1507.57 3055.25 1508.31 2962.55L1509.04 2942.82C1518.81 2548.43 1723.97 2245.14 1967.01 2265.73C2210.05 2286.33 2398.96 2622.93 2389.19 3017.33C2387.36 3091.54 2378.98 3162.93 2364.36 3229.15C2804.26 3315.2 3276.36 3533.74 3883.63 3884.32C3763.88 3663.87 3657 3465.15 3554.94 3275.89C3394.17 3151.28 3226.47 2989.11 2884.42 2813.54C3119.53 2874.63 3287.86 2945.12 3419.08 3023.9C2381.34 1091.83 2297.31 835.102 1941.45 0Z" fill="white"/>
</svg>
